#Comment line ignore any data following # character 
#Hierarchical Translation and Rotation (.htr) file 
[Header]	
#Header keywords are followed by a single value 
FileType HTR		#Single word string
DataType HTRS		#Translation followed by rotation and scale data
FileVersion 1		#integer
NumSegments 64		#integer
NumFrames 3		#integer
DataFrameRate 30		#integer, data frame rate in this file
EulerRotationOrder ZYX
CalibrationUnits mm
RotationUnits Degrees
GlobalAxisofGravity Y
BoneLengthAxis Y
ScaleFactor 1.00
[SegmentNames&Hierarchy]
#CHILD	PARENT
Pinger_Root GLOBAL
Pelvis Pinger_Root
L_Hip Pelvis
R_Hip Pelvis
Rear_Leg01 Pelvis
Spine1 Pelvis
L_Leg01 L_Hip
L_Leg02 L_Leg01
L_Leg03 L_Leg02
L_Foot L_Leg03
L_Toe1_01 L_Foot
L_Toe2_01 L_Foot
L_Toe3_01 L_Foot
planeAlignerLeft L_Foot
L_Toe1_02 L_Toe1_01
L_Toe1_03 L_Toe1_02
L_Toe2_02 L_Toe2_01
L_Toe2_03 L_Toe2_02
L_Toe3_02 L_Toe3_01
L_Toe3_03 L_Toe3_02
planeLockWeightLeft planeAlignerLeft
R_Leg01 R_Hip
R_Leg02 R_Leg01
R_Leg03 R_Leg02
R_Foot R_Leg03
planeAlignerRight R_Foot
R_Toe1_01 R_Foot
R_Toe2_01 R_Foot
R_Toe3_01 R_Foot
planeLockWeightRight planeAlignerRight
R_Toe1_02 R_Toe1_01
R_Toe1_03 R_Toe1_02
R_Toe2_02 R_Toe2_01
R_Toe2_03 R_Toe2_02
R_Toe3_02 R_Toe3_01
R_Toe3_03 R_Toe3_02
Rear_Leg02 Rear_Leg01
Rear_Leg03 Rear_Leg02
Rear_Leg04 Rear_Leg03
Rear_Foot Rear_Leg04
planeAlignerCenter Rear_Foot
Rear_Toe1_01 Rear_Foot
Rear_Toe2_01 Rear_Foot
Rear_Toe3_01 Rear_Foot
planeLockWeightCenter planeAlignerCenter
Rear_Toe1_02 Rear_Toe1_01
Rear_Toe1_03 Rear_Toe1_02
Rear_Toe2_02 Rear_Toe2_01
Rear_Toe2_03 Rear_Toe2_02
Rear_Toe3_02 Rear_Toe3_01
Rear_Toe3_03 Rear_Toe3_02
Back_Bone Spine1
Head Spine1
Motor_Bone Back_Bone
Ping_Mechanism Back_Bone
BN_LookIK Head
bottomMouth Head
L_Mouth01 Head
L_mouthFront Head
mouthGun Head
R_Mouth01 Head
R_mouthFront Head
TopMouth Head
weapon_bone Head
[BasePosition]
#SegmentName Tx, Ty, Tz, Rx, Ry, Rz, BoneLength
Pinger_Root 0.000000 0.000000 0.000000 -90.000000 0.000000 0.000000 10.000000 
Pelvis 0.000000 0.000000 0.000000 0.000000 0.000000 0.000000 10.000000 
L_Hip 0.000000 0.000000 0.000000 0.000000 0.000000 0.000000 10.000000 
R_Hip 0.000000 0.000000 0.000000 0.000000 0.000000 0.000000 10.000000 
Rear_Leg01 0.000000 0.000000 0.000000 0.000000 0.000000 0.000000 10.000000 
Spine1 0.000000 0.000000 0.000000 0.000000 0.000000 0.000000 10.000000 
L_Leg01 0.000000 0.000000 0.000000 0.000000 0.000000 0.000000 10.000000 
L_Leg02 0.000000 0.000000 0.000000 0.000000 0.000000 0.000000 10.000000 
L_Leg03 0.000000 0.000000 0.000000 0.000000 0.000000 0.000000 10.000000 
L_Foot 0.000000 0.000000 0.000000 0.000000 0.000000 0.000000 10.000000 
L_Toe1_01 0.000000 0.000000 0.000000 0.000000 0.000000 0.000000 10.000000 
L_Toe2_01 0.000000 0.000000 0.000000 0.000000 0.000000 0.000000 10.000000 
L_Toe3_01 0.000000 0.000000 0.000000 0.000000 0.000000 0.000000 10.000000 
planeAlignerLeft 0.000000 0.000000 0.000000 0.000000 0.000000 0.000000 10.000000 
L_Toe1_02 0.000000 0.000000 0.000000 0.000000 0.000000 0.000000 10.000000 
L_Toe1_03 0.000000 0.000000 0.000000 0.000000 0.000000 0.000000 10.000000 
L_Toe2_02 0.000000 0.000000 0.000000 0.000000 0.000000 0.000000 10.000000 
L_Toe2_03 0.000000 0.000000 0.000000 0.000000 0.000000 0.000000 10.000000 
L_Toe3_02 0.000000 0.000000 0.000000 0.000000 0.000000 0.000000 10.000000 
L_Toe3_03 0.000000 0.000000 0.000000 0.000000 0.000000 0.000000 10.000000 
planeLockWeightLeft 0.000000 0.000000 0.000000 0.000000 0.000000 0.000000 10.000000 
R_Leg01 0.000000 0.000000 0.000000 0.000000 0.000000 0.000000 10.000000 
R_Leg02 0.000000 0.000000 0.000000 0.000000 0.000000 0.000000 10.000000 
R_Leg03 0.000000 0.000000 0.000000 0.000000 0.000000 0.000000 10.000000 
R_Foot 0.000000 0.000000 0.000000 0.000000 0.000000 0.000000 10.000000 
planeAlignerRight 0.000000 0.000000 0.000000 0.000000 0.000000 0.000000 10.000000 
R_Toe1_01 0.000000 0.000000 0.000000 0.000000 0.000000 0.000000 10.000000 
R_Toe2_01 0.000000 0.000000 0.000000 0.000000 0.000000 0.000000 10.000000 
R_Toe3_01 0.000000 0.000000 0.000000 0.000000 0.000000 0.000000 10.000000 
planeLockWeightRight 0.000000 0.000000 0.000000 0.000000 0.000000 0.000000 10.000000 
R_Toe1_02 0.000000 0.000000 0.000000 0.000000 0.000000 0.000000 10.000000 
R_Toe1_03 0.000000 0.000000 0.000000 0.000000 0.000000 0.000000 10.000000 
R_Toe2_02 0.000000 0.000000 0.000000 0.000000 0.000000 0.000000 10.000000 
R_Toe2_03 0.000000 0.000000 0.000000 0.000000 0.000000 0.000000 10.000000 
R_Toe3_02 0.000000 0.000000 0.000000 0.000000 0.000000 0.000000 10.000000 
R_Toe3_03 0.000000 0.000000 0.000000 0.000000 0.000000 0.000000 10.000000 
Rear_Leg02 0.000000 0.000000 0.000000 0.000000 0.000000 0.000000 10.000000 
Rear_Leg03 0.000000 0.000000 0.000000 0.000000 0.000000 0.000000 10.000000 
Rear_Leg04 0.000000 0.000000 0.000000 0.000000 0.000000 0.000000 10.000000 
Rear_Foot 0.000000 0.000000 0.000000 0.000000 0.000000 0.000000 10.000000 
planeAlignerCenter 0.000000 0.000000 0.000000 0.000000 0.000000 0.000000 10.000000 
Rear_Toe1_01 0.000000 0.000000 0.000000 0.000000 0.000000 0.000000 10.000000 
Rear_Toe2_01 0.000000 0.000000 0.000000 0.000000 0.000000 0.000000 10.000000 
Rear_Toe3_01 0.000000 0.000000 0.000000 0.000000 0.000000 0.000000 10.000000 
planeLockWeightCenter 0.000000 0.000000 0.000000 0.000000 0.000000 0.000000 10.000000 
Rear_Toe1_02 0.000000 0.000000 0.000000 0.000000 0.000000 0.000000 10.000000 
Rear_Toe1_03 0.000000 0.000000 0.000000 0.000000 0.000000 0.000000 10.000000 
Rear_Toe2_02 0.000000 0.000000 0.000000 0.000000 0.000000 0.000000 10.000000 
Rear_Toe2_03 0.000000 0.000000 0.000000 0.000000 0.000000 0.000000 10.000000 
Rear_Toe3_02 0.000000 0.000000 0.000000 0.000000 0.000000 0.000000 10.000000 
Rear_Toe3_03 0.000000 0.000000 0.000000 0.000000 0.000000 0.000000 10.000000 
Back_Bone 0.000000 0.000000 0.000000 0.000000 0.000000 0.000000 10.000000 
Head 0.000000 0.000000 0.000000 0.000000 0.000000 0.000000 10.000000 
Motor_Bone 0.000000 0.000000 0.000000 0.000000 0.000000 0.000000 10.000000 
Ping_Mechanism 0.000000 0.000000 0.000000 0.000000 0.000000 0.000000 10.000000 
BN_LookIK 0.000000 0.000000 0.000000 0.000000 0.000000 0.000000 10.000000 
bottomMouth 0.000000 0.000000 0.000000 0.000000 0.000000 0.000000 10.000000 
L_Mouth01 0.000000 0.000000 0.000000 0.000000 0.000000 0.000000 10.000000 
L_mouthFront 0.000000 0.000000 0.000000 0.000000 0.000000 0.000000 10.000000 
mouthGun 0.000000 0.000000 0.000000 0.000000 0.000000 0.000000 10.000000 
R_Mouth01 0.000000 0.000000 0.000000 0.000000 0.000000 0.000000 10.000000 
R_mouthFront 0.000000 0.000000 0.000000 0.000000 0.000000 0.000000 10.000000 
TopMouth 0.000000 0.000000 0.000000 0.000000 0.000000 0.000000 10.000000 
weapon_bone 0.000000 0.000000 0.000000 0.000000 0.000000 0.000000 10.000000 
#Beginning of Data. Separated by tabs
#Fr	Tx	Ty	Tz	Rx	Ry	Rz	SF
[Pinger_Root]
658 0.000000 -3918.487549 0.000000 -0.000075 -0.000000 -0.000020 3918.487549
659 0.000000 -4369.842773 0.000000 -0.000075 -0.000000 -0.000020 4369.842773
660 0.000000 -4706.521973 0.000000 -0.000075 -0.000000 -0.000020 4706.521973
[Pelvis]
658 11223.752930 18131.330078 7820.180176 -61.154865 -87.200119 -40.930592 22712.837891
659 11353.796875 18655.179688 7860.687988 57.873886 -86.760452 -159.927185 23210.230469
660 11481.611328 19061.974609 7897.150391 73.798218 -82.018784 -175.743881 23612.523438
[L_Hip]
658 5.766392 125.831482 872.656799 -178.253311 -81.787758 87.381340 881.701050
659 5.766392 125.831482 872.656799 -178.253311 -81.787758 87.381340 881.701050
660 5.766392 125.831482 872.656799 -178.253342 -81.787758 87.381340 881.701050
[R_Hip]
658 5.765438 125.836372 -872.654907 -1.746690 81.787712 87.381248 881.699829
659 5.765438 125.836372 -872.654907 -1.746690 81.787712 87.381248 881.699829
660 5.765438 125.836372 -872.654907 -1.746678 81.787712 87.381248 881.699829
[Rear_Leg01]
658 -192.298416 -925.602966 -0.001907 172.222229 8.979857 -148.219421 945.367432
659 -192.298416 -925.602966 -0.001907 173.340729 10.191764 -149.876953 945.367432
660 -192.298416 -925.602966 -0.001907 174.011383 10.863202 -154.763977 945.367432
[Spine1]
658 290.604584 5.007505 0.000477 10.377724 -2.551808 24.379665 290.647736
659 290.604584 5.007505 0.000477 10.409395 -2.891173 29.873079 290.647736
660 290.604584 5.007505 0.000477 10.337711 -3.308471 35.163956 290.647736
[L_Leg01]
658 761.932007 -0.002384 -0.069261 62.207054 -14.979923 -67.179993 761.932068
659 761.932007 -0.002384 -0.069261 64.052109 -11.034929 -69.495705 761.932068
660 761.932007 -0.002384 -0.069261 65.591835 -7.620039 -71.561043 761.932068
[L_Leg02]
658 1441.140503 -0.000954 -0.000715 -1.391273 0.494114 -103.239418 1441.140503
659 1441.140503 -0.000954 -0.000715 -1.399619 0.571068 -103.355019 1441.140503
660 1441.140503 -0.000954 -0.000715 -1.407700 0.647989 -103.472275 1441.140503
[L_Leg03]
658 1686.963989 -0.000715 -0.000954 0.029397 -0.010094 101.896942 1686.963989
659 1686.963989 -0.000715 -0.000954 0.043561 -0.010420 98.926765 1686.963989
660 1686.963989 -0.000715 -0.000954 0.054174 -0.013144 95.620018 1686.963989
[L_Foot]
658 3041.570068 -30.715107 11.297464 -14.871569 16.414183 67.872154 3041.746094
659 3041.570068 -30.715107 11.297464 -13.834848 16.572796 70.895546 3041.746094
660 3041.570068 -30.715107 11.297464 -12.789618 16.679083 73.924965 3041.746094
[L_Toe1_01]
658 -188.216690 -224.732346 -21.137953 89.691368 -3.346096 -165.280319 293.899567
659 -188.216690 -224.732346 -21.137953 89.634720 -3.126256 -165.024994 293.899567
660 -188.216690 -224.732346 -21.137953 89.578850 -2.905352 -164.769241 293.899567
[L_Toe2_01]
658 200.746536 -219.926590 148.838394 -77.568748 -14.310213 -44.386822 332.896027
659 200.746536 -219.926590 148.838394 -77.581276 -14.232430 -44.419270 332.896027
660 200.746536 -219.926590 148.838394 -77.623398 -14.077159 -44.406929 332.896027
[L_Toe3_01]
658 188.832520 -219.859131 -191.078659 -105.163132 14.636244 -45.233330 347.140900
659 188.832520 -219.859131 -191.078659 -105.281937 14.987471 -45.372475 347.140900
660 188.832520 -219.859131 -191.078659 -105.402206 15.339931 -45.512791 347.140900
[planeAlignerLeft]
658 0.812531 -811.448792 -0.314951 0.000000 -90.000000 -90.001900 811.449280
659 0.812531 -811.448792 -0.314951 0.000000 -90.000000 -90.001900 811.449280
660 0.812531 -811.448792 -0.314951 0.000000 -90.000000 -90.001900 811.449280
[L_Toe1_02]
658 413.761139 0.000477 0.000000 0.001412 -22.476507 0.001412 413.761139
659 413.761139 0.000477 0.000000 0.001411 -22.557180 0.001411 413.761139
660 413.761139 0.000477 0.000000 0.001409 -22.786835 0.001409 413.761139
[L_Toe1_03]
658 464.317322 0.000358 -0.000089 0.015110 81.090355 0.015110 464.317322
659 464.317322 0.000358 -0.000089 0.014135 80.474922 0.014135 464.317322
660 464.317322 0.000358 -0.000089 0.012947 79.598030 0.012947 464.317322
[L_Toe2_02]
658 342.235809 -0.000477 0.000238 0.001180 -77.707077 0.001180 342.235809
659 342.235809 -0.000477 0.000238 0.001180 -77.772697 0.001180 342.235809
660 342.235809 -0.000477 0.000238 0.001180 -77.982254 0.001180 342.235809
[L_Toe2_03]
658 420.210846 -0.000715 0.000000 -179.996429 77.639030 -179.992905 420.210846
659 420.210846 -0.000715 0.000000 -179.996689 77.007500 -179.993164 420.210846
660 420.210846 -0.000715 0.000000 -179.997055 75.986008 -179.993530 420.210846
[L_Toe3_02]
658 329.270111 0.000954 0.000000 0.001177 -81.847794 0.001177 329.270111
659 329.270111 0.000954 0.000000 0.001177 -81.880470 0.001177 329.270111
660 329.270111 0.000954 0.000000 0.001177 -81.913155 0.001177 329.270111
[L_Toe3_03]
658 439.137451 -0.001907 0.000954 -179.997879 73.014023 -179.994339 439.137451
659 439.137451 -0.001907 0.000954 -179.997955 72.690346 -179.994415 439.137451
660 439.137451 -0.001907 0.000954 -179.998032 72.364914 -179.994492 439.137451
[planeLockWeightLeft]
658 -0.000954 0.000238 -0.000305 -0.011826 -0.004376 0.005620 0.001029
659 -0.000954 0.000238 -0.000305 -0.011826 -0.004376 0.005620 0.001029
660 -0.000954 0.000238 -0.000305 -0.011826 -0.004376 0.005620 0.001029
[R_Leg01]
658 761.455627 -0.001907 -0.000358 89.959267 -5.265726 79.103012 761.455688
659 761.455627 -0.001907 -0.000358 88.763954 3.755418 78.460205 761.455688
660 761.455627 -0.001907 -0.000358 87.435982 12.767382 77.609421 761.455688
[R_Leg02]
658 1441.140625 0.000000 -0.000238 0.193517 -0.016270 -96.324066 1441.140625
659 1441.140625 0.000000 -0.000238 0.197801 -0.003246 -91.226280 1441.140625
660 1441.140625 0.000000 -0.000238 0.203239 0.009364 -86.126450 1441.140625
[R_Leg03]
658 1686.963989 0.000954 0.001431 -0.051264 0.011645 96.468811 1686.963989
659 1686.963989 0.000954 0.001431 -0.056591 0.012856 94.787743 1686.963989
660 1686.963989 0.000954 0.001431 -0.061918 0.014158 93.556862 1686.963989
[R_Foot]
658 3041.560059 -30.531288 -11.204481 13.957791 -22.268888 83.608147 3041.734131
659 3041.560059 -30.531288 -11.204481 14.949534 -22.445093 83.714340 3041.734131
660 3041.560059 -30.531288 -11.204481 15.815743 -22.784706 83.695328 3041.734131
[planeAlignerRight]
658 -0.635147 -812.270569 -0.364304 0.000000 -89.960434 -90.005180 812.270874
659 -0.635147 -812.270569 -0.364304 0.000000 -89.960434 -90.005180 812.270874
660 -0.635147 -812.270569 -0.364304 0.000000 -89.960434 -90.005180 812.270874
[R_Toe1_01]
658 -188.383347 -224.864899 21.052242 90.860268 1.668449 -156.459488 294.101532
659 -188.383347 -224.864899 21.052242 90.938255 1.460587 -154.007507 294.101532
660 -188.383347 -224.864899 21.052242 91.024963 1.232829 -151.146835 294.101532
[R_Toe2_01]
658 200.637817 -220.002121 -148.787384 -103.647018 10.552584 -52.696526 332.857574
659 200.637817 -220.002121 -148.787384 -103.995331 9.971574 -54.702896 332.857574
660 200.637817 -220.002121 -148.787384 -104.322937 9.378048 -56.705528 332.857574
[R_Toe3_01]
658 188.606735 -220.092957 191.126343 -72.008606 -13.541967 -54.764633 347.192566
659 188.606735 -220.092957 191.126343 -71.459747 -13.177319 -56.853931 347.192566
660 188.606735 -220.092957 191.126343 -70.924911 -12.793078 -58.939781 347.192566
[planeLockWeightRight]
658 -0.000477 0.000000 0.000000 -0.011823 -0.004379 -0.000027 0.000477
659 -0.000477 0.000000 0.000000 -0.011823 -0.004379 -0.000027 0.000477
660 -0.000477 0.000000 0.000000 -0.011823 -0.004379 -0.000027 0.000477
[R_Toe1_02]
658 413.762085 0.000477 -0.000119 0.001398 -24.226158 0.001398 413.762085
659 413.762085 0.000477 -0.000119 0.001394 -24.741362 0.001394 413.762085
660 413.762085 0.000477 -0.000119 0.001390 -25.256569 0.001390 413.762085
[R_Toe1_03]
658 464.317810 0.000000 0.001088 0.007817 72.731049 0.007817 464.317810
659 464.317810 0.000000 0.001088 0.006530 69.292374 0.006530 464.317810
660 464.317810 0.000000 0.001088 0.005384 64.818718 0.005384 464.317810
[R_Toe2_02]
658 342.234741 -0.000954 0.000238 -0.002345 -74.471909 -0.002345 342.234741
659 342.234741 -0.000954 0.000238 -0.000590 -73.572052 -0.000590 342.234741
660 342.234741 -0.000954 0.000238 0.001178 -72.670471 0.001178 342.234741
[R_Toe2_03]
658 420.210846 0.000715 -0.000268 -179.952637 88.556259 -179.956131 420.210846
659 420.210846 0.000715 -0.000268 -0.063259 88.986641 -0.066756 420.210846
660 420.210846 0.000715 -0.000268 0.035512 86.240631 0.035494 420.210846
[R_Toe3_02]
658 329.270355 -0.000477 -0.000954 0.001180 -78.329918 0.001180 329.270355
659 329.270355 -0.000477 -0.000954 0.001181 -77.367912 0.001181 329.270355
660 329.270355 -0.000477 -0.000954 0.001182 -76.403885 0.001182 329.270355
[R_Toe3_03]
658 439.137939 0.000238 0.001431 -179.984497 86.182327 -179.980988 439.137939
659 439.137939 0.000238 0.001431 -179.947449 88.787102 -179.943939 439.137939
660 439.137939 0.000238 0.001431 -0.040137 88.284332 -0.036640 439.137939
[Rear_Leg02]
658 1162.777710 -0.029802 0.005960 29.764250 -3.880879 -124.044472 1162.777710
659 1162.777710 -0.029802 0.005960 28.791409 0.559490 -132.546158 1162.777710
660 1162.777710 -0.029802 0.005960 27.086044 2.721984 -139.558105 1162.777710
[Rear_Leg03]
658 607.192505 -0.013351 -0.073195 0.009853 -0.006251 81.143333 607.192505
659 607.192505 -0.013351 -0.073195 0.009842 -0.006268 81.341690 607.192505
660 607.192505 -0.013351 -0.073195 0.009850 -0.006255 81.187111 607.192505
[Rear_Leg04]
658 995.874512 -0.020504 -0.011921 -0.040877 -0.011840 111.560928 995.874573
659 995.874512 -0.020504 -0.011921 -0.039301 -0.008189 118.139519 995.874573
660 995.874512 -0.020504 -0.011921 -0.039527 -0.006943 121.742073 995.874573
[Rear_Foot]
658 3096.176270 -0.067472 -0.041425 -64.100052 57.543217 81.910591 3096.176270
659 3096.176270 -0.067472 -0.041425 -61.211262 57.321243 92.075958 3096.176270
660 3096.176270 -0.067472 -0.041425 -54.905064 56.831314 99.406822 3096.176270
[planeAlignerCenter]
658 0.350077 0.966311 -838.790894 0.000009 0.000003 -179.999985 838.791565
659 0.350077 0.966311 -838.790894 0.000009 0.000003 -179.999985 838.791565
660 0.350077 0.966311 -838.790894 0.000009 0.000003 -179.999985 838.791565
[Rear_Toe1_01]
658 0.653352 83.966492 -371.173737 0.091778 39.598106 90.046661 380.553192
659 0.653352 83.966492 -371.173737 0.089865 39.575787 90.046532 380.553192
660 0.653352 83.966492 -371.173737 0.089457 39.712543 90.045189 380.553192
[Rear_Toe2_01]
658 178.200760 -294.826019 -362.060547 90.285271 84.152725 19.677332 499.765686
659 178.200760 -294.826019 -362.060547 104.857704 83.253403 34.255867 499.765686
660 178.200760 -294.826019 -362.060547 115.505737 82.028580 44.909859 499.765686
[Rear_Toe3_01]
658 -153.359680 -308.780914 -362.060852 -88.792366 83.375465 159.612686 499.952881
659 -153.359680 -308.780914 -362.060852 -101.848335 82.473976 146.549530 499.952881
660 -153.359680 -308.780914 -362.060852 -111.732391 81.271614 136.658371 499.952881
[planeLockWeightCenter]
658 -0.000062 0.000238 0.000000 -0.011814 -0.004373 -0.000015 0.000246
659 -0.000062 0.000238 0.000000 -0.011814 -0.004373 -0.000015 0.000246
660 -0.000062 0.000238 0.000000 -0.011814 -0.004373 -0.000015 0.000246
[Rear_Toe1_02]
658 379.707825 0.194073 0.000477 -0.002646 -32.792831 -0.002646 379.707855
659 379.707825 0.194073 0.000477 -0.002643 -32.999184 -0.002643 379.707855
660 379.707825 0.194073 0.000477 -0.002641 -33.205566 -0.002641 379.707855
[Rear_Toe1_03]
658 500.129700 0.165701 0.000119 0.000000 89.842987 -0.003498 500.129761
659 500.129700 0.165701 0.000119 -0.017202 86.522835 -0.020701 500.129761
660 500.129700 0.165701 0.000119 -0.007937 83.198456 -0.011440 500.129761
[Rear_Toe2_02]
658 340.494507 0.000238 -0.000954 179.998825 -87.170975 179.998825 340.494507
659 340.494507 0.000238 -0.000954 179.998825 -87.103966 179.998825 340.494507
660 340.494507 0.000238 -0.000954 179.998825 -87.036674 179.998825 340.494507
[Rear_Toe2_03]
658 433.103577 0.000000 0.000238 -179.996292 54.308189 -179.999969 433.103546
659 433.103577 0.000000 0.000238 -179.996323 53.777370 -180.000000 433.103546
660 433.103577 0.000000 0.000238 -179.996338 53.471409 180.000000 433.103546
[Rear_Toe3_02]
658 340.494141 -0.000358 -0.000477 -179.994171 -87.222023 -179.994171 340.494171
659 340.494141 -0.000358 -0.000477 -179.994171 -87.156136 -179.994171 340.494171
660 340.494141 -0.000358 -0.000477 -179.994171 -87.090073 -179.994171 340.494171
[Rear_Toe3_03]
658 433.103577 0.001431 -0.000238 -179.999954 54.602776 -179.996277 433.103546
659 433.103577 0.001431 -0.000238 -179.999985 54.099087 -179.996307 433.103546
660 433.103577 0.001431 -0.000238 179.992569 53.820408 179.999924 433.103546
[Back_Bone]
658 1312.175781 -701.934692 0.000954 -3.195289 0.393785 -84.625061 1488.125488
659 1312.175781 -701.934692 0.000954 -3.244128 -0.499418 -84.448639 1488.125488
660 1312.175781 -701.934692 0.000954 -3.295279 -1.393891 -84.270500 1488.125488
[Head]
658 1406.159424 809.709290 0.001431 -2.171167 2.358479 2.277097 1622.625488
659 1406.159424 809.709290 0.001431 -2.561617 2.261031 1.887806 1622.625488
660 1406.159424 809.709290 0.001431 -2.998470 2.033858 1.348333 1622.625488
[Motor_Bone]
658 1158.364380 -417.834747 0.000477 -0.497256 -0.371567 -106.354095 1231.419434
659 1158.364380 -417.834747 0.000477 1.440898 -0.932894 -106.915428 1231.419434
660 1158.364380 -417.834747 0.000477 0.756339 -1.013957 -106.997284 1231.419434
[Ping_Mechanism]
658 1237.775513 -446.541382 -6.628741 0.000103 -0.000053 82.120995 1315.876709
659 1215.383545 -432.615082 -8.930941 0.000103 -0.000053 82.120995 1290.113403
660 1195.508301 -417.298737 -9.622918 0.000103 -0.000053 82.120995 1266.282227
[BN_LookIK]
658 193.241119 1380.371704 -0.002861 0.000000 89.965736 -31.038179 1393.832153
659 193.241119 1380.371704 -0.002861 0.000000 89.965736 -31.038179 1393.832153
660 193.241119 1380.371704 -0.002861 0.000000 89.965736 -31.038179 1393.832153
[bottomMouth]
658 -435.092926 615.759399 -0.000954 -0.000022 0.000016 73.527184 753.966492
659 -435.092926 615.759399 -0.000954 -0.000022 0.000016 73.527184 753.966492
660 -435.092926 615.759399 -0.000954 -0.000022 0.000016 73.527184 753.966492
[L_Mouth01]
658 554.440979 7.658243 838.222046 150.204178 23.759130 109.605339 1005.027161
659 554.440979 7.658243 838.222046 150.204178 23.759130 109.605339 1005.027161
660 554.440979 7.658243 838.222046 150.204178 23.759130 109.605339 1005.027161
[L_mouthFront]
658 551.629089 934.514771 339.150421 0.000081 2.804060 79.119301 1136.941284
659 551.629089 934.514771 339.150421 0.000081 2.804060 79.119301 1136.941284
660 551.629089 934.514771 339.150421 0.000081 2.804060 79.119301 1136.941284
[mouthGun]
658 55.332661 1627.420898 0.000000 0.000023 0.000009 -11.038128 1628.361328
659 55.332661 1627.420898 0.000000 0.000023 0.000009 -11.038128 1628.361328
660 55.332661 1627.420898 0.000000 0.000023 0.000009 -11.038128 1628.361328
[R_Mouth01]
658 554.442383 7.659197 -838.223938 29.795891 -23.759109 109.605331 1005.029541
659 554.442383 7.659197 -838.223938 29.795891 -23.759109 109.605331 1005.029541
660 554.442383 7.659197 -838.223938 29.795891 -23.759109 109.605331 1005.029541
[R_mouthFront]
658 551.629089 934.514282 -339.151367 0.000029 -2.803930 79.119133 1136.941162
659 551.629089 934.514282 -339.151367 0.000029 -2.803930 79.119133 1136.941162
660 551.629089 934.514282 -339.151367 0.000029 -2.803930 79.119133 1136.941162
[TopMouth]
658 461.269867 -56.106091 -0.008583 -0.000059 -0.000268 92.025169 464.669525
659 461.269867 -56.106091 -0.008583 -0.000059 -0.000268 92.025169 464.669525
660 461.269867 -56.106091 -0.008583 -0.000059 -0.000268 92.025169 464.669525
[weapon_bone]
658 -987.239868 1448.372803 0.001431 0.000000 89.965736 -31.038221 1752.833740
659 -987.239868 1448.372803 0.001431 0.000000 89.965736 -31.038221 1752.833740
660 -987.239868 1448.372803 0.001431 0.000000 89.965736 -31.038221 1752.833740
